<svg width="7" height="12" viewBox="0 0 7 12" fill="none" xmlns="http://www.w3.org/2000/svg">
<path d="M6.75968 0.234846C6.68401 0.160403 6.59412 0.101341 6.49515 0.061042C6.39618 0.0207433 6.29008 0 6.18293 0C6.07578 0 5.96968 0.0207433 5.87071 0.061042C5.77174 0.101341 5.68185 0.160403 5.60618 0.234846L0.190585 5.54907C0.13017 5.60823 0.0822396 5.67851 0.0495365 5.75587C0.0168334 5.83323 0 5.91616 0 5.99992C0 6.08367 0.0168334 6.1666 0.0495365 6.24396C0.0822396 6.32133 0.13017 6.3916 0.190585 6.45076L5.60618 11.765C5.92551 12.0783 6.44035 12.0783 6.75968 11.765C7.07901 11.4516 7.07901 10.9464 6.75968 10.6331L2.0414 5.99672L6.7662 1.36036C7.07901 1.0534 7.07901 0.541804 6.75968 0.234846Z" fill="#fff"/>
</svg>
