<svg width="11" height="18" viewBox="0 0 11 18" fill="none" xmlns="http://www.w3.org/2000/svg">
    <path
        d="M0.361897 0.345C0.481897 0.24 0.616897 0.15 0.751897 0.09C0.901897 0.03 1.0669 0 1.2169 0C1.3669 0 1.5319 0.03 1.6819 0.09C1.8319 0.15 1.9669 0.24 2.0719 0.345L10.2019 8.31C10.2919 8.4 10.3669 8.505 10.4119 8.625C10.4569 8.745 10.4869 8.865 10.4869 8.985C10.4869 9.105 10.4569 9.24 10.4119 9.345C10.3669 9.465 10.2919 9.57 10.2019 9.66L2.0869 17.64C1.6069 18.105 0.841897 18.105 0.361897 17.64C-0.118103 17.175 -0.118103 16.41 0.361897 15.945L7.4419 8.985L0.346897 2.04C-0.118103 1.575 -0.118103 0.81 0.361897 0.345Z"
        fill="#fff" />
</svg>