<svg width="18" height="11" viewBox="0 0 18 11" fill="none" xmlns="http://www.w3.org/2000/svg">
    <path
        d="M0.345 10.14C0.24 10.02 0.15 9.885 0.09 9.75C0.03 9.6 0 9.435 0 9.285C0 9.135 0.03 8.97 0.09 8.82C0.15 8.67 0.24 8.535 0.345 8.43L8.325 0.285C8.415 0.195 8.52 0.12 8.64 0.075C8.76 0.03 8.88 0 9 0C9.12 0 9.255 0.03 9.36 0.075C9.48 0.12 9.585 0.195 9.675 0.285L17.64 8.415C18.105 8.895 18.105 9.66 17.64 10.14C17.175 10.62 16.41 10.62 15.945 10.14L9 3.06L2.04 10.155C1.575 10.62 0.81 10.62 0.345 10.155V10.14Z"
        fill="#fff" />
</svg>