<svg width="18" height="11" viewBox="0 0 18 11" fill="none" xmlns="http://www.w3.org/2000/svg">
    <path
        d="M17.655 0.36375C17.76 0.48375 17.85 0.61875 17.91 0.75375C17.97 0.90375 18 1.06875 18 1.21875C18 1.36875 17.97 1.53375 17.91 1.68375C17.85 1.83375 17.76 1.96875 17.655 2.07375L9.69 10.2038C9.6 10.2938 9.495 10.3688 9.375 10.4137C9.255 10.4587 9.135 10.4888 9.015 10.4888C8.895 10.4888 8.76 10.4587 8.655 10.4137C8.535 10.3688 8.43 10.2938 8.34 10.2038L0.36 2.08875C-0.12 1.60875 -0.12 0.84375 0.36 0.36375C0.825 -0.11625 1.575 -0.11625 2.055 0.36375L9.015 7.44375L15.96 0.34875C16.425 -0.11625 17.19 -0.11625 17.655 0.34875V0.36375Z"
        fill="#fff" />
</svg>