<svg width="20" height="16" viewBox="0 0 20 16" fill="none" xmlns="http://www.w3.org/2000/svg">
<path d="M17.9971 0.325012C18.2159 0.324684 18.4334 0.367535 18.6357 0.450989C18.8379 0.534409 19.0218 0.656926 19.1768 0.81134C19.3318 0.965872 19.455 1.15027 19.5391 1.35236C19.6229 1.55417 19.6666 1.77052 19.667 1.98907V11.9588C19.667 12.3988 19.4927 12.8214 19.1826 13.1336C18.9114 13.4067 18.5552 13.5758 18.1758 13.616L18.0117 13.6258L11.998 13.6668L11.8604 13.6678L11.7637 13.7645L10.0029 15.5281L8.23535 13.7645L8.13867 13.6678L8.00195 13.6668L1.98828 13.6258C1.54835 13.6227 1.1274 13.4458 0.817383 13.1336C0.507341 12.8214 0.332997 12.3988 0.333008 11.9588V2.00275C0.333077 1.56081 0.50879 1.13654 0.821289 0.824036C1.13361 0.511787 1.55741 0.336989 1.99902 0.336731L7.86328 0.375793L9.7666 2.2381L10.0029 2.46857L10.2354 2.23615L12.1377 0.332825L17.9971 0.325012ZM18 1.659L12.8291 1.66583H12.6914L12.5947 1.76349L10.7803 3.57697L10.6826 3.67462V3.81232L10.667 12.0057L10.666 12.3416L11.002 12.3397L18.002 12.2928L18.333 12.2899V1.65802L18 1.659ZM9.33301 3.67267L9.23242 3.57404L7.41211 1.79962L7.31543 1.70587L7.18164 1.7049L2.00195 1.66974L1.66699 1.66779V12.2899L1.99805 12.2928L8.99805 12.3397L9.33301 12.3416V3.67267Z" fill="#fff" stroke="#000" stroke-width="0.666667"/>
</svg>
