<svg width="20" height="20" viewBox="0 0 20 20" fill="none" xmlns="http://www.w3.org/2000/svg">
<path d="M7 14.8435H13M15 19H5C3.93913 19 2.92172 18.5621 2.17157 17.7826C1.42143 17.0031 1 15.9458 1 14.8435V8.30521C0.999986 7.59051 1.17732 6.88788 1.51487 6.26517C1.85242 5.64247 2.33879 5.12072 2.927 4.75033L7.927 1.60175C8.55211 1.20812 9.26907 1 10 1C10.7309 1 11.4479 1.20812 12.073 1.60175L17.073 4.75033C17.6611 5.12063 18.1473 5.64221 18.4849 6.26472C18.8224 6.88723 18.9998 7.58965 19 8.30417V14.8435C19 15.9458 18.5786 17.0031 17.8284 17.7826C17.0783 18.5621 16.0609 19 15 19Z" stroke="#000" stroke-width="1.5" stroke-linecap="round" stroke-linejoin="round"/>
</svg>
