<svg width="100" height="25" viewBox="0 0 100 25" fill="none" xmlns="http://www.w3.org/2000/svg">
<g clip-path="url(#clip0_528_12945)">
<path d="M47.1844 9.45763C46.5033 8.67647 45.4992 8.28589 44.1722 8.28589C43.3928 8.28589 42.6906 8.45328 42.0517 8.79504C41.4549 9.1089 40.9844 9.5483 40.6123 10.0993C40.3384 9.6041 39.9593 9.18562 39.4748 8.86478C38.892 8.48118 38.1407 8.28589 37.2279 8.28589C36.4275 8.28589 35.7113 8.46025 35.0653 8.80899C34.5738 9.07402 34.1595 9.42276 33.8225 9.83426V8.56487H31.2386V20.1288H34.1946V13.1263C34.1946 12.4637 34.3772 11.9197 34.7493 11.5012C35.1215 11.0827 35.613 10.8735 36.2238 10.8735C36.8347 10.8735 37.3683 11.0827 37.7264 11.5082C38.0916 11.9336 38.2741 12.5265 38.2741 13.2937V20.1288H41.2091V13.1263C41.2091 12.6869 41.2934 12.2893 41.4619 11.9546C41.6304 11.6128 41.8691 11.3547 42.171 11.1594C42.473 10.9711 42.8311 10.8735 43.2383 10.8735C43.8773 10.8735 44.3758 11.0827 44.7409 11.5082C45.106 11.9336 45.2816 12.5265 45.2816 13.2937V20.1288H48.2165V12.5265C48.2165 11.2641 47.8795 10.2388 47.1984 9.45763H47.1844Z" fill="black"/>
<path d="M56.0244 20.4497C54.8518 20.4497 53.8267 20.1916 52.942 19.6685C52.0573 19.1454 51.3692 18.427 50.8777 17.5133C50.3862 16.5927 50.1404 15.5395 50.1404 14.3468C50.1404 13.1542 50.3932 12.0801 50.8917 11.1594C51.3903 10.2388 52.0924 9.52737 52.9701 9.01125C53.8478 8.49512 54.8729 8.23706 56.0244 8.23706C57.176 8.23706 58.2222 8.49512 59.1139 9.01822C60.0056 9.54132 60.6937 10.2597 61.1922 11.1734C61.6908 12.094 61.9365 13.1472 61.9365 14.3399C61.9365 15.5325 61.6838 16.5997 61.1852 17.5133C60.6867 18.427 59.9916 19.1454 59.1069 19.6685C58.2222 20.1846 57.197 20.4427 56.0315 20.4427L56.0244 20.4497ZM56.0244 17.7296C56.9653 17.7296 57.6675 17.4157 58.1309 16.781C58.5943 16.1463 58.826 15.3372 58.826 14.3468C58.826 13.3564 58.5943 12.4986 58.1168 11.8848C57.6464 11.271 56.9442 10.9641 56.0174 10.9641C55.3785 10.9641 54.8518 11.1036 54.4446 11.3896C54.0374 11.6756 53.7284 12.0731 53.5318 12.5753C53.3352 13.0775 53.2369 13.6703 53.2369 14.3399C53.2369 15.3721 53.4756 16.1951 53.9461 16.8089C54.4165 17.4227 55.1116 17.7226 56.0244 17.7226V17.7296Z" fill="black"/>
<path d="M69.618 8.53704C69.267 8.56494 68.9229 8.62074 68.5929 8.71838C68.2629 8.81603 67.9539 8.94855 67.6801 9.12291C67.315 9.33913 67.006 9.61114 66.7533 9.93895C66.6339 10.0924 66.5286 10.2598 66.4303 10.4341V8.57192H63.8464V20.1359H66.8024V14.2214C66.8024 13.782 66.8656 13.3774 66.985 13.0287C67.1043 12.673 67.2869 12.3661 67.5256 12.1081C67.7644 11.85 68.0522 11.6408 68.3963 11.4803C68.7403 11.313 69.1265 11.2153 69.5548 11.1874C69.9831 11.1525 70.3553 11.1874 70.6853 11.292V8.57192C70.3342 8.53007 69.9831 8.52309 69.6251 8.54402L69.618 8.53704Z" fill="black"/>
<path d="M77.3066 20.4496C75.8391 20.4496 74.6524 20.1218 73.7537 19.4592C72.8549 18.7967 72.3073 17.8621 72.1107 16.6554L75.1088 16.2091C75.2282 16.7531 75.502 17.1785 75.9233 17.4854C76.3446 17.7923 76.8783 17.9458 77.5242 17.9458C78.0579 17.9458 78.4651 17.8411 78.753 17.6389C79.0409 17.4366 79.1883 17.1506 79.1883 16.788C79.1883 16.5578 79.1321 16.3765 79.0128 16.237C78.9004 16.0975 78.6406 15.958 78.2404 15.8255C77.8402 15.6929 77.2223 15.5116 76.3797 15.2884C75.4318 15.0443 74.6735 14.7723 74.1048 14.4724C73.536 14.1725 73.1288 13.8168 72.876 13.3983C72.6232 12.9798 72.4968 12.4776 72.4968 11.8848C72.4968 11.1455 72.6864 10.4968 73.0656 9.95281C73.4447 9.40878 73.9854 8.98333 74.6805 8.6904C75.3757 8.39746 76.1901 8.24402 77.131 8.24402C78.0719 8.24402 78.8513 8.38351 79.5605 8.6625C80.2626 8.94148 80.8313 9.33904 81.2667 9.84819C81.702 10.3573 81.9688 10.9711 82.0671 11.6686L79.069 12.2056C79.0198 11.7802 78.8302 11.4384 78.5072 11.1873C78.1842 10.9362 77.7419 10.7898 77.1942 10.7479C76.6536 10.713 76.2252 10.7828 75.8952 10.9641C75.5652 11.1455 75.4037 11.3966 75.4037 11.7383C75.4037 11.9406 75.474 12.108 75.6144 12.2405C75.7548 12.373 76.0427 12.5125 76.485 12.659C76.9274 12.8054 77.6015 12.9868 78.5072 13.2169C79.3919 13.4471 80.1011 13.7121 80.6347 14.0121C81.1684 14.312 81.5616 14.6816 81.8003 15.1071C82.039 15.5325 82.1654 16.0417 82.1654 16.6415C82.1654 17.8272 81.7301 18.7618 80.8735 19.4383C80.0098 20.1149 78.8162 20.4566 77.2925 20.4566L77.3066 20.4496Z" fill="black"/>
<path d="M94.9235 12.7148C94.8954 12.2963 94.8111 11.829 94.6777 11.3199C94.5443 10.8107 94.3126 10.3155 93.9966 9.84822C93.6736 9.37394 93.2313 8.99033 92.6555 8.68345C92.0798 8.37657 91.3355 8.22312 90.4227 8.22312C89.2782 8.22312 88.3303 8.46724 87.586 8.96244C87.2349 9.1926 86.926 9.46461 86.6522 9.76452V4.2406H84.0402V20.1288H87.0173V14.2632C87.0173 13.5448 87.1015 12.9659 87.263 12.5265C87.4245 12.0941 87.6281 11.7593 87.8809 11.5361C88.1337 11.3129 88.4005 11.1594 88.6884 11.0827C88.9763 11.006 89.2431 10.9642 89.4959 10.9642C90.1208 10.9642 90.6053 11.1037 90.9423 11.3826C91.2863 11.6616 91.5321 12.0104 91.6795 12.4219C91.834 12.8334 91.9183 13.2449 91.9464 13.6564C91.9744 14.0679 91.9885 14.4027 91.9885 14.6677V20.1288H94.9656V13.6424C94.9656 13.4471 94.9516 13.1402 94.9235 12.7218V12.7148Z" fill="black"/>
<path d="M100 4.23364H97.065V6.94678H100V4.23364Z" fill="black"/>
<path d="M100 8.55798H97.065V20.1219H100V8.55798Z" fill="black"/>
<path d="M26.8993 12.1289L23.9433 24.1114C23.9082 24.2578 23.7186 24.3067 23.6133 24.2021C22.56 23.107 18.5086 18.4828 18.5086 12.4846C18.5086 9.67386 19.1055 7.33038 19.8989 5.46815C19.9551 5.34261 20.1166 5.30774 20.2149 5.40538L26.8502 11.9546C26.8993 12.0034 26.9204 12.0731 26.8993 12.1359V12.1289Z" fill="#FECC98"/>
<mask id="mask0_528_12945" style="mask-type:luminance" maskUnits="userSpaceOnUse" x="9" y="0" width="18" height="25">
<path d="M14.9487 24.0904C14.7521 24.2857 14.4362 24.2787 14.2466 24.0835C13.0529 22.8071 9.2473 18.2945 9.2473 12.4776C9.25432 5.35653 13.06 1.27636 14.2536 0.174369C14.4432 3.20747e-06 14.7381 3.20747e-06 14.9277 0.188319L26.5833 11.6825C26.7729 11.8708 26.7729 12.1708 26.5833 12.366L14.9487 24.0974V24.0904Z" fill="white"/>
</mask>
<g mask="url(#mask0_528_12945)">
<path d="M9.32453 0H9.25432V24.2857H9.32453V0Z" fill="#FF1700"/>
<path d="M9.49305 0H9.32453V24.2857H9.49305V0Z" fill="#FF1700"/>
<path d="M9.66156 0H9.49305V24.2857H9.66156V0Z" fill="#FF1800"/>
<path d="M9.82306 0H9.65454V24.2857H9.82306V0Z" fill="#FF1900"/>
<path d="M9.99157 0H9.82306V24.2857H9.99157V0Z" fill="#FF1A00"/>
<path d="M10.1601 0H9.99157V24.2857H10.1601V0Z" fill="#FF1B00"/>
<path d="M10.3286 0H10.1601V24.2857H10.3286V0Z" fill="#FF1C00"/>
<path d="M10.4901 0H10.3216V24.2857H10.4901V0Z" fill="#FF1D00"/>
<path d="M10.6586 0H10.4901V24.2857H10.6586V0Z" fill="#FF1E00"/>
<path d="M10.8271 0H10.6586V24.2857H10.8271V0Z" fill="#FF1F00"/>
<path d="M10.9956 0H10.8271V24.2857H10.9956V0Z" fill="#FF2000"/>
<path d="M11.1571 0H10.9886V24.2857H11.1571V0Z" fill="#FF2100"/>
<path d="M11.3257 0H11.1571V24.2857H11.3257V0Z" fill="#FF2200"/>
<path d="M11.4942 0H11.3257V24.2857H11.4942V0Z" fill="#FF2300"/>
<path d="M11.6557 0H11.4872V24.2857H11.6557V0Z" fill="#FF2400"/>
<path d="M11.8242 0H11.6557V24.2857H11.8242V0Z" fill="#FF2500"/>
<path d="M11.9927 0H11.8242V24.2857H11.9927V0Z" fill="#FF2600"/>
<path d="M12.1612 0H11.9927V24.2857H12.1612V0Z" fill="#FF2700"/>
<path d="M12.3227 0H12.1542V24.2857H12.3227V0Z" fill="#FF2800"/>
<path d="M12.4912 0H12.3227V24.2857H12.4912V0Z" fill="#FF2900"/>
<path d="M12.6597 0H12.4912V24.2857H12.6597V0Z" fill="#FF2A00"/>
<path d="M12.8283 0H12.6597V24.2857H12.8283V0Z" fill="#FF2B00"/>
<path d="M12.9897 0H12.8212V24.2857H12.9897V0Z" fill="#FF2C00"/>
<path d="M13.1583 0H12.9897V24.2857H13.1583V0Z" fill="#FF2D00"/>
<path d="M13.3268 0H13.1583V24.2857H13.3268V0Z" fill="#FF2E00"/>
<path d="M13.4883 0H13.3198V24.2857H13.4883V0Z" fill="#FF2F00"/>
<path d="M13.6568 0H13.4883V24.2857H13.6568V0Z" fill="#FF3000"/>
<path d="M13.8253 0H13.6568V24.2857H13.8253V0Z" fill="#FE3100"/>
<path d="M13.9938 0H13.8253V24.2857H13.9938V0Z" fill="#FE3200"/>
<path d="M14.1553 0H13.9868V24.2857H14.1553V0Z" fill="#FE3300"/>
<path d="M14.3238 0H14.1553V24.2857H14.3238V0Z" fill="#FE3400"/>
<path d="M14.4923 0H14.3238V24.2857H14.4923V0Z" fill="#FE3500"/>
<path d="M14.6609 0H14.4923V24.2857H14.6609V0Z" fill="#FE3600"/>
<path d="M14.8224 0H14.6538V24.2857H14.8224V0Z" fill="#FE3700"/>
<path d="M14.9909 0H14.8224V24.2857H14.9909V0Z" fill="#FE3800"/>
<path d="M15.1594 0H14.9909V24.2857H15.1594V0Z" fill="#FE3900"/>
<path d="M15.3209 0H15.1524V24.2857H15.3209V0Z" fill="#FE3A00"/>
<path d="M15.4894 0H15.3209V24.2857H15.4894V0Z" fill="#FE3B00"/>
<path d="M15.6579 0H15.4894V24.2857H15.6579V0Z" fill="#FE3C00"/>
<path d="M15.8264 0H15.6579V24.2857H15.8264V0Z" fill="#FE3D00"/>
<path d="M15.9879 0H15.8194V24.2857H15.9879V0Z" fill="#FE3E00"/>
<path d="M16.1564 0H15.9879V24.2857H16.1564V0Z" fill="#FE3F00"/>
<path d="M16.325 0H16.1564V24.2857H16.325V0Z" fill="#FE4000"/>
<path d="M16.4864 0H16.3179V24.2857H16.4864V0Z" fill="#FE4100"/>
<path d="M16.655 0H16.4864V24.2857H16.655V0Z" fill="#FE4200"/>
<path d="M16.8235 0H16.655V24.2857H16.8235V0Z" fill="#FE4300"/>
<path d="M16.992 0H16.8235V24.2857H16.992V0Z" fill="#FE4400"/>
<path d="M17.1535 0H16.985V24.2857H17.1535V0Z" fill="#FE4500"/>
<path d="M17.322 0H17.1535V24.2857H17.322V0Z" fill="#FE4600"/>
<path d="M17.4905 0H17.322V24.2857H17.4905V0Z" fill="#FE4700"/>
<path d="M17.659 0H17.4905V24.2857H17.659V0Z" fill="#FE4800"/>
<path d="M17.8205 0H17.652V24.2857H17.8205V0Z" fill="#FE4900"/>
<path d="M17.989 0H17.8205V24.2857H17.989V0Z" fill="#FE4A00"/>
<path d="M18.1576 0H17.989V24.2857H18.1576V0Z" fill="#FE4C00"/>
<path d="M18.3191 0H18.1505V24.2857H18.3191V0Z" fill="#FE4D00"/>
<path d="M18.4876 0H18.3191V24.2857H18.4876V0Z" fill="#FE4E00"/>
<path d="M18.6561 0H18.4876V24.2857H18.6561V0Z" fill="#FE4F00"/>
<path d="M18.8246 0H18.6561V24.2857H18.8246V0Z" fill="#FE5000"/>
<path d="M18.9861 0H18.8176V24.2857H18.9861V0Z" fill="#FE5100"/>
<path d="M19.1546 0H18.9861V24.2857H19.1546V0Z" fill="#FE5200"/>
<path d="M19.3231 0H19.1546V24.2857H19.3231V0Z" fill="#FE5300"/>
<path d="M19.4916 0H19.3231V24.2857H19.4916V0Z" fill="#FE5400"/>
<path d="M19.6531 0H19.4846V24.2857H19.6531V0Z" fill="#FE5500"/>
<path d="M19.8217 0H19.6531V24.2857H19.8217V0Z" fill="#FE5600"/>
<path d="M19.9902 0H19.8217V24.2857H19.9902V0Z" fill="#FE5700"/>
<path d="M20.1517 0H19.9831V24.2857H20.1517V0Z" fill="#FE5800"/>
<path d="M20.3202 0H20.1517V24.2857H20.3202V0Z" fill="#FE5900"/>
<path d="M20.4887 0H20.3202V24.2857H20.4887V0Z" fill="#FE5A00"/>
<path d="M20.6572 0H20.4887V24.2857H20.6572V0Z" fill="#FE5B00"/>
<path d="M20.8187 0H20.6502V24.2857H20.8187V0Z" fill="#FE5C00"/>
<path d="M20.9872 0H20.8187V24.2857H20.9872V0Z" fill="#FE5D00"/>
<path d="M21.1557 0H20.9872V24.2857H21.1557V0Z" fill="#FE5E00"/>
<path d="M21.3243 0H21.1557V24.2857H21.3243V0Z" fill="#FE5F00"/>
<path d="M21.4857 0H21.3172V24.2857H21.4857V0Z" fill="#FE6000"/>
<path d="M21.6543 0H21.4857V24.2857H21.6543V0Z" fill="#FE6100"/>
<path d="M21.8228 0H21.6543V24.2857H21.8228V0Z" fill="#FE6200"/>
<path d="M21.9843 0H21.8158V24.2857H21.9843V0Z" fill="#FE6300"/>
<path d="M22.1528 0H21.9843V24.2857H22.1528V0Z" fill="#FE6400"/>
<path d="M22.3213 0H22.1528V24.2857H22.3213V0Z" fill="#FE6500"/>
<path d="M22.4898 0H22.3213V24.2857H22.4898V0Z" fill="#FD6600"/>
<path d="M22.6513 0H22.4828V24.2857H22.6513V0Z" fill="#FD6700"/>
<path d="M22.8198 0H22.6513V24.2857H22.8198V0Z" fill="#FD6800"/>
<path d="M22.9883 0H22.8198V24.2857H22.9883V0Z" fill="#FD6900"/>
<path d="M23.1569 0H22.9883V24.2857H23.1569V0Z" fill="#FD6A00"/>
<path d="M23.3184 0H23.1498V24.2857H23.3184V0Z" fill="#FD6B00"/>
<path d="M23.4869 0H23.3184V24.2857H23.4869V0Z" fill="#FD6C00"/>
<path d="M23.6554 0H23.4869V24.2857H23.6554V0Z" fill="#FD6D00"/>
<path d="M23.8169 0H23.6484V24.2857H23.8169V0Z" fill="#FD6E00"/>
<path d="M23.9854 0H23.8169V24.2857H23.9854V0Z" fill="#FD6F00"/>
<path d="M24.1539 0H23.9854V24.2857H24.1539V0Z" fill="#FD7000"/>
<path d="M24.3224 0H24.1539V24.2857H24.3224V0Z" fill="#FD7100"/>
<path d="M24.4839 0H24.3154V24.2857H24.4839V0Z" fill="#FD7200"/>
<path d="M24.6524 0H24.4839V24.2857H24.6524V0Z" fill="#FD7300"/>
<path d="M24.821 0H24.6524V24.2857H24.821V0Z" fill="#FD7400"/>
<path d="M24.9824 0H24.8139V24.2857H24.9824V0Z" fill="#FD7500"/>
<path d="M25.151 0H24.9824V24.2857H25.151V0Z" fill="#FD7600"/>
<path d="M25.3195 0H25.151V24.2857H25.3195V0Z" fill="#FD7700"/>
<path d="M25.488 0H25.3195V24.2857H25.488V0Z" fill="#FD7800"/>
<path d="M25.6495 0H25.481V24.2857H25.6495V0Z" fill="#FD7900"/>
<path d="M25.818 0H25.6495V24.2857H25.818V0Z" fill="#FD7A00"/>
<path d="M25.9865 0H25.818V24.2857H25.9865V0Z" fill="#FD7B00"/>
<path d="M26.155 0H25.9865V24.2857H26.155V0Z" fill="#FD7C00"/>
<path d="M26.3165 0H26.148V24.2857H26.3165V0Z" fill="#FD7D00"/>
<path d="M26.485 0H26.3165V24.2857H26.485V0Z" fill="#FD7E00"/>
<path d="M26.6536 0H26.485V24.2857H26.6536V0Z" fill="#FD7F00"/>
<path d="M26.7659 0H26.6465V24.2857H26.7659V0Z" fill="#FD7F00"/>
</g>
<path d="M17.645 12.1289L14.6889 24.1114C14.6538 24.2578 14.4643 24.3067 14.3589 24.2021C13.3057 23.107 9.25432 18.4828 9.25432 12.4846C9.25432 9.67386 9.85114 7.33038 10.6446 5.46815C10.7007 5.34261 10.8622 5.30774 10.9605 5.40538L17.5958 11.9546C17.645 12.0034 17.6661 12.0731 17.645 12.1359V12.1289Z" fill="#1874D2"/>
<mask id="mask1_528_12945" style="mask-type:luminance" maskUnits="userSpaceOnUse" x="0" y="0" width="18" height="25">
<path d="M5.70145 24.0904C5.50484 24.2857 5.18888 24.2787 4.9993 24.0835C3.80564 22.8071 0 18.2875 0 12.4776C0 5.35653 3.80564 1.27636 4.9993 0.174369C5.18888 3.20747e-06 5.4908 3.20747e-06 5.67336 0.188319L17.329 11.6825C17.5186 11.8708 17.5186 12.1708 17.329 12.366L5.69442 24.0974L5.70145 24.0904Z" fill="white"/>
</mask>
<g mask="url(#mask1_528_12945)">
<path d="M0.344053 0H0V24.2857H0.344053V0Z" fill="#0141CF"/>
<path d="M0.688106 0H0.344053V24.2857H0.688106V0Z" fill="#0142CF"/>
<path d="M1.03216 0H0.688107V24.2857H1.03216V0Z" fill="#0243CF"/>
<path d="M1.36919 0H1.02514V24.2857H1.36919V0Z" fill="#0244CF"/>
<path d="M1.71324 0H1.36919V24.2857H1.71324V0Z" fill="#0345CF"/>
<path d="M2.05729 0H1.71324V24.2857H2.05729V0Z" fill="#0346CF"/>
<path d="M2.40135 0H2.05729V24.2857H2.40135V0Z" fill="#0447CF"/>
<path d="M2.7454 0H2.40135V24.2857H2.7454V0Z" fill="#0448CF"/>
<path d="M3.08243 0H2.73838V24.2857H3.08243V0Z" fill="#0549CF"/>
<path d="M3.42648 0H3.08243V24.2857H3.42648V0Z" fill="#054AD0"/>
<path d="M3.77054 0H3.42649V24.2857H3.77054V0Z" fill="#064BD0"/>
<path d="M4.11459 0H3.77054V24.2857H4.11459V0Z" fill="#064CD0"/>
<path d="M4.45162 0H4.10757V24.2857H4.45162V0Z" fill="#074DD0"/>
<path d="M4.79567 0H4.45162V24.2857H4.79567V0Z" fill="#074ED0"/>
<path d="M5.13973 0H4.79568V24.2857H5.13973V0Z" fill="#074FD0"/>
<path d="M5.48378 0H5.13973V24.2857H5.48378V0Z" fill="#0850D0"/>
<path d="M5.82783 0H5.48378V24.2857H5.82783V0Z" fill="#0851D0"/>
<path d="M6.16486 0H5.82081V24.2857H6.16486V0Z" fill="#0952D0"/>
<path d="M6.50892 0H6.16486V24.2857H6.50892V0Z" fill="#0953D0"/>
<path d="M6.85297 0H6.50892V24.2857H6.85297V0Z" fill="#0A54D0"/>
<path d="M7.19702 0H6.85297V24.2857H7.19702V0Z" fill="#0A55D0"/>
<path d="M7.54108 0H7.19702V24.2857H7.54108V0Z" fill="#0B56D0"/>
<path d="M7.87811 0H7.53405V24.2857H7.87811V0Z" fill="#0B57D0"/>
<path d="M8.22216 0H7.87811V24.2857H8.22216V0Z" fill="#0C58D0"/>
<path d="M8.56621 0H8.22216V24.2857H8.56621V0Z" fill="#0C59D0"/>
<path d="M8.91027 0H8.56621V24.2857H8.91027V0Z" fill="#0D5BD1"/>
<path d="M9.25432 0H8.91026V24.2857H9.25432V0Z" fill="#0D5CD1"/>
<path d="M9.59135 0H9.2473V24.2857H9.59135V0Z" fill="#0D5DD1"/>
<path d="M9.9354 0H9.59135V24.2857H9.9354V0Z" fill="#0E5ED1"/>
<path d="M10.2795 0H9.9354V24.2857H10.2795V0Z" fill="#0E5FD1"/>
<path d="M10.6235 0H10.2795V24.2857H10.6235V0Z" fill="#0F60D1"/>
<path d="M10.9605 0H10.6165V24.2857H10.9605V0Z" fill="#0F61D1"/>
<path d="M11.3046 0H10.9605V24.2857H11.3046V0Z" fill="#1062D1"/>
<path d="M11.6486 0H11.3046V24.2857H11.6486V0Z" fill="#1063D1"/>
<path d="M11.9927 0H11.6486V24.2857H11.9927V0Z" fill="#1164D1"/>
<path d="M12.3368 0H11.9927V24.2857H12.3368V0Z" fill="#1165D1"/>
<path d="M12.6738 0H12.3297V24.2857H12.6738V0Z" fill="#1266D1"/>
<path d="M13.0178 0H12.6738V24.2857H13.0178V0Z" fill="#1267D1"/>
<path d="M13.3619 0H13.0178V24.2857H13.3619V0Z" fill="#1268D1"/>
<path d="M13.7059 0H13.3619V24.2857H13.7059V0Z" fill="#1369D1"/>
<path d="M14.05 0H13.7059V24.2857H14.05V0Z" fill="#136AD1"/>
<path d="M14.387 0H14.043V24.2857H14.387V0Z" fill="#146BD1"/>
<path d="M14.7311 0H14.387V24.2857H14.7311V0Z" fill="#146CD2"/>
<path d="M15.0751 0H14.7311V24.2857H15.0751V0Z" fill="#156DD2"/>
<path d="M15.4192 0H15.0751V24.2857H15.4192V0Z" fill="#156ED2"/>
<path d="M15.7632 0H15.4192V24.2857H15.7632V0Z" fill="#166FD2"/>
<path d="M16.1003 0H15.7562V24.2857H16.1003V0Z" fill="#1670D2"/>
<path d="M16.4443 0H16.1003V24.2857H16.4443V0Z" fill="#1771D2"/>
<path d="M16.7884 0H16.4443V24.2857H16.7884V0Z" fill="#1772D2"/>
<path d="M17.1324 0H16.7884V24.2857H17.1324V0Z" fill="#1873D2"/>
<path d="M17.4765 0H17.1324V24.2857H17.4765V0Z" fill="#1874D2"/>
<path d="M17.5186 0H17.4695V24.2857H17.5186V0Z" fill="#1874D2"/>
</g>
</g>
<defs>
<clipPath id="clip0_528_12945">
<rect width="100" height="24.2857" fill="white"/>
</clipPath>
</defs>
</svg>
