<svg width="18" height="16" viewBox="0 0 18 16" fill="none" xmlns="http://www.w3.org/2000/svg">
<path d="M2.41669 11.7109L3.23183 10.9015C2.33929 10.1001 1.63801 9.10853 1.17972 8C2.33688 5.10994 5.52906 2.86972 8.55022 2.86972C9.32766 2.88019 10.0981 3.01886 10.8303 3.28014L11.7139 2.39089C10.7122 1.96727 9.6377 1.74268 8.55022 1.72966C6.69222 1.79953 4.89541 2.4123 3.38187 3.49224C1.86833 4.57218 0.704408 6.07195 0.0339594 7.80619C-0.0113198 7.93143 -0.0113198 8.06857 0.0339594 8.19381C0.540288 9.53738 1.35668 10.7424 2.41669 11.7109Z" fill="#fff"/>
<path d="M6.26965 7.84609C6.30929 7.29984 6.54422 6.78611 6.9315 6.39883C7.31877 6.01156 7.83251 5.77662 8.37876 5.73698L9.41052 4.69952C8.83237 4.54729 8.22442 4.54927 7.64727 4.70526C7.07013 4.86124 6.54395 5.16579 6.12121 5.58854C5.69846 6.01128 5.39391 6.53746 5.23792 7.1146C5.08194 7.69175 5.07996 8.2997 5.23219 8.87785L6.26965 7.84609ZM17.066 7.80619C16.4124 6.10362 15.275 4.62942 13.7941 3.56516L16.5302 0.823309L15.7265 0.0195656L0.569336 15.1767L1.37308 15.9804L4.28024 13.0733C5.57652 13.8335 7.04723 14.2458 8.54977 14.2703C10.4078 14.2005 12.2046 13.5877 13.7181 12.5078C15.2317 11.4278 16.3956 9.92805 17.066 8.19381C17.1113 8.06857 17.1113 7.93143 17.066 7.80619ZM10.8299 8C10.8275 8.39908 10.7204 8.79054 10.5193 9.13526C10.3182 9.47997 10.0301 9.76586 9.68391 9.96436C9.33769 10.1629 8.94543 10.267 8.54635 10.2664C8.14726 10.2658 7.75532 10.1605 7.40971 9.96091L10.5107 6.85994C10.7156 7.20522 10.8257 7.5985 10.8299 8ZM8.54977 13.1303C7.35388 13.1094 6.18066 12.8004 5.12958 12.2296L6.57746 10.7818C7.23604 11.2387 8.0342 11.4498 8.83258 11.3783C9.63096 11.3067 10.3788 10.957 10.9457 10.3902C11.5125 9.82338 11.8622 9.07549 11.9337 8.27711C12.0053 7.47873 11.7942 6.68057 11.3372 6.02199L12.9732 4.386C14.2812 5.28379 15.304 6.53811 15.9203 8C14.7631 10.8901 11.5709 13.1303 8.54977 13.1303Z" fill="#fff"/>
</svg>
