<svg width="18" height="13" viewBox="0 0 18 13" fill="none" xmlns="http://www.w3.org/2000/svg">
<path d="M17.0664 6.25617C16.396 4.52194 15.2321 3.02218 13.7185 1.94224C12.205 0.862304 10.4082 0.249533 8.55019 0.179663C6.69219 0.249533 4.89539 0.862304 3.38185 1.94224C1.86832 3.02218 0.704405 4.52194 0.0339592 6.25617C-0.0113197 6.38141 -0.0113197 6.51855 0.0339592 6.64379C0.704405 8.37802 1.86832 9.87778 3.38185 10.9577C4.89539 12.0377 6.69219 12.6504 8.55019 12.7203C10.4082 12.6504 12.205 12.0377 13.7185 10.9577C15.2321 9.87778 16.396 8.37802 17.0664 6.64379C17.1117 6.51855 17.1117 6.38141 17.0664 6.25617ZM8.55019 11.5802C5.52904 11.5802 2.33688 9.34003 1.17972 6.44998C2.33688 3.55993 5.52904 1.31972 8.55019 1.31972C11.5713 1.31972 14.7635 3.55993 15.9207 6.44998C14.7635 9.34003 11.5713 11.5802 8.55019 11.5802Z" fill="#fff"/>
<path d="M8.55006 3.02981C7.87361 3.02981 7.21236 3.2304 6.64991 3.60621C6.08747 3.98202 5.64909 4.51618 5.39023 5.14114C5.13136 5.76609 5.06363 6.45378 5.1956 7.11722C5.32757 7.78067 5.65331 8.39009 6.13163 8.86841C6.60995 9.34673 7.21937 9.67247 7.88281 9.80444C8.54626 9.93641 9.23395 9.86867 9.8589 9.60981C10.4839 9.35095 11.018 8.91257 11.3938 8.35013C11.7696 7.78768 11.9702 7.12643 11.9702 6.44998C11.9702 5.5429 11.6099 4.67296 10.9685 4.03155C10.3271 3.39015 9.45714 3.02981 8.55006 3.02981ZM8.55006 8.7301C8.09909 8.7301 7.65826 8.59637 7.28329 8.34583C6.90833 8.09529 6.61608 7.73918 6.44351 7.32254C6.27093 6.90591 6.22577 6.44745 6.31375 6.00515C6.40173 5.56285 6.61889 5.15658 6.93777 4.8377C7.25665 4.51882 7.66293 4.30166 8.10523 4.21368C8.54753 4.1257 9.00598 4.17085 9.42262 4.34343C9.83926 4.51601 10.1954 4.80825 10.4459 5.18322C10.6964 5.55818 10.8302 5.99902 10.8302 6.44998C10.8302 7.05471 10.5899 7.63466 10.1623 8.06227C9.73474 8.48987 9.15478 8.7301 8.55006 8.7301Z" fill="#fff"/>
</svg>
