<svg width="29" height="35" viewBox="0 0 29 35" fill="none" xmlns="http://www.w3.org/2000/svg">
<path d="M5.11293 0.000913195C10.0041 0.000913195 14.8944 0.000913195 19.7855 0.000913195C19.8671 0.104104 19.9385 0.218254 20.031 0.310486C22.7725 3.03729 25.5139 5.765 28.2645 8.48358C28.4926 8.70823 28.5933 8.92739 28.5924 9.25249C28.5823 16.474 28.5851 23.6947 28.5842 30.9162C28.5842 31.1208 28.5805 31.3262 28.5695 31.5308C28.4862 33.1828 27.1901 34.6484 25.5579 34.9261C25.2666 34.9754 24.968 34.9964 24.6721 34.9964C18.3777 35 12.0824 34.9964 5.78799 35.0019C4.92791 35.0019 4.13378 34.8046 3.43949 34.2932C2.43927 33.5563 1.91444 32.5618 1.88879 31.318C1.87688 30.7537 1.88696 30.1884 1.88696 29.6231C0.466317 29.6441 -0.0255486 28.8332 0.00101394 27.6013C0.0513912 25.2562 0.0147532 22.9093 0.0156691 20.5624C0.0156691 20.0045 0.00284584 19.4456 0.0321563 18.8885C0.0724581 18.1287 0.663246 17.5598 1.42807 17.505C1.57187 17.495 1.71659 17.4904 1.88421 17.4822C1.88421 17.3206 1.88421 17.1854 1.88421 17.0512C1.88421 12.6432 1.88146 8.23519 1.88604 3.8272C1.88787 2.09213 2.90549 0.677591 4.4965 0.175333C4.69984 0.11141 4.90685 0.0584445 5.11202 0L5.11293 0.000913195ZM4.16401 17.5005H4.61924C10.3549 17.5005 16.0906 17.5005 21.8263 17.5005C23.0344 17.5005 23.6133 18.0767 23.6142 19.2785C23.6142 22.1148 23.5913 24.9512 23.6261 27.7876C23.6399 28.9136 22.963 29.6231 21.7988 29.6167C16.0631 29.5866 10.3274 29.603 4.59176 29.603H4.16401C4.16401 30.1135 4.16309 30.5783 4.16401 31.0432C4.16676 32.1509 4.74106 32.7225 5.86035 32.7225C12.1099 32.7234 18.3603 32.7234 24.6099 32.7225C25.7337 32.7225 26.3007 32.1573 26.298 31.0441C26.2796 24.0609 26.2604 17.0777 26.2403 10.0954C26.2403 9.97574 26.2283 9.85612 26.221 9.71731C26.036 9.71731 25.8894 9.71731 25.742 9.71731C24.2343 9.71457 22.7248 9.74562 21.2181 9.69996C20.0035 9.66343 18.9401 8.61874 18.8989 7.41423C18.8449 5.85541 18.8678 4.29384 18.8577 2.73411C18.8568 2.59073 18.8577 2.44645 18.8577 2.29303C18.7551 2.28025 18.7001 2.26838 18.6452 2.26838C14.3375 2.27203 10.0298 2.27568 5.72204 2.28207C5.33734 2.28207 4.97737 2.37431 4.67603 2.63822C4.27209 2.99071 4.15943 3.44731 4.16035 3.9587C4.16309 8.34478 4.16218 12.7299 4.16218 17.116C4.16218 17.2283 4.16218 17.3397 4.16218 17.5005H4.16401ZM9.45546 20.6455V26.8744C10.3165 26.8744 11.1545 26.9438 11.9771 26.8607C13.9528 26.6598 14.953 25.5658 15.0125 23.6563C15.0638 22.0171 14.1845 20.9295 12.5669 20.6282C11.531 20.4355 10.4996 20.5222 9.45637 20.6464L9.45546 20.6455ZM3.97166 26.8425H5.39322V24.6325C5.53519 24.6325 5.64693 24.6316 5.75776 24.6325C6.32199 24.6389 6.87431 24.5823 7.38999 24.3303C8.1603 23.9531 8.50287 23.312 8.49371 22.4801C8.48547 21.6957 8.14656 21.082 7.40098 20.7816C6.27711 20.3286 5.12118 20.5332 3.97166 20.6446V26.8415V26.8425ZM17.4114 21.7231H19.8149V20.598H15.9761V26.847H17.4096V24.3156H19.6472V23.1751H17.4105V21.724L17.4114 21.7231Z" fill="#FF1700"/>
<path d="M10.877 25.7648V21.7029C11.6628 21.4454 12.6383 21.7038 13.1009 22.2846C13.5909 22.9001 13.6285 24.1831 13.1778 24.9456C12.7785 25.6205 11.8643 25.9547 10.877 25.7657V25.7648Z" fill="#FF1700"/>
<path d="M5.38248 23.5631C5.38248 22.9266 5.37515 22.3741 5.39164 21.8216C5.39347 21.7485 5.51163 21.6253 5.58399 21.6189C5.8313 21.5988 6.08685 21.5896 6.32958 21.6326C6.78938 21.7129 7.04127 22.0015 7.08432 22.4307C7.12828 22.8709 6.90204 23.2991 6.47521 23.4233C6.13906 23.521 5.77359 23.5174 5.38157 23.5631H5.38248Z" fill="#FF1700"/>
</svg>
