<svg width="40" height="40" viewBox="0 0 40 40" fill="none" xmlns="http://www.w3.org/2000/svg">
    <rect x="0.75" y="0.75" width="38.5" height="38.5" rx="19.25" stroke="#0A101E" stroke-width="1.5" />
    <path
        d="M15 13.0149V26.9831C15 28.0483 16.1434 28.6955 17.0239 28.1157L27.7219 21.1316C27.9092 21.01 28.0635 20.8418 28.1704 20.6426C28.2773 20.4434 28.3333 20.2197 28.3333 19.9923C28.3333 19.7649 28.2773 19.5412 28.1704 19.342C28.0635 19.1428 27.9092 18.9746 27.7219 18.853L17.0239 11.8824C16.8257 11.7509 16.5966 11.6766 16.3606 11.6676C16.1247 11.6585 15.8908 11.715 15.6835 11.831C15.4763 11.9469 15.3034 12.1181 15.1831 12.3265C15.0628 12.5349 14.9995 12.7728 15 13.0149Z"
        fill="#0A101E" />
</svg>