<svg width="15" height="15" viewBox="0 0 15 15" fill="none" xmlns="http://www.w3.org/2000/svg">
<path d="M0 7.5C0 8.87833 1.12167 10 2.5 10C3.16167 10 3.76 9.7375 4.2075 9.31667L9.2 12.17C9.185 12.2783 9.16667 12.3867 9.16667 12.5C9.16667 13.8783 10.2883 15 11.6667 15C13.045 15 14.1667 13.8783 14.1667 12.5C14.1667 11.1217 13.045 10 11.6667 10C11.005 10 10.4067 10.2625 9.95917 10.6833L4.96667 7.83083C4.98167 7.72167 5 7.61333 5 7.5C5 7.38667 4.98167 7.27833 4.96667 7.16917L9.95917 4.31667C10.4067 4.7375 11.005 5 11.6667 5C13.045 5 14.1667 3.87833 14.1667 2.5C14.1667 1.12167 13.045 0 11.6667 0C10.2883 0 9.16667 1.12167 9.16667 2.5C9.16667 2.61333 9.185 2.72167 9.2 2.83083L4.2075 5.68333C3.74667 5.24557 3.13561 5.00102 2.5 5C1.12167 5 0 6.12167 0 7.5Z" fill="#fff"/>
</svg>
