<svg width="24" height="24" viewBox="0 0 24 24" fill="none" xmlns="http://www.w3.org/2000/svg">
<path d="M12 1.90344C13.4889 1.90344 14.9406 2.37176 16.1484 3.24231C17.3561 4.11283 18.2587 5.34169 18.7295 6.75403C19.2003 8.16648 19.2154 9.69129 18.7715 11.1124C18.3276 12.5334 17.4477 13.7787 16.2568 14.672L16.2119 14.7052L16.2637 14.7257C18.6623 15.6995 20.6634 17.4523 21.9453 19.7013V19.7023C22.0793 19.9526 22.111 20.2456 22.0332 20.5187C21.9553 20.7915 21.774 21.0232 21.5283 21.1652C21.2825 21.3071 20.9912 21.3483 20.7158 21.2794C20.4404 21.2105 20.2027 21.0371 20.0527 20.796H20.0518C18.3474 17.852 15.3381 16.0939 12 16.0939C8.66149 16.094 5.65143 17.8514 3.94727 20.797L3.94629 20.798C3.87714 20.9271 3.78294 21.041 3.66895 21.1329C3.55481 21.225 3.42322 21.2929 3.28223 21.3331C3.14122 21.3733 2.99317 21.3853 2.84766 21.3673C2.70238 21.3493 2.56232 21.3018 2.43555 21.2286C2.30873 21.1554 2.1976 21.0574 2.10938 20.9406C2.0211 20.8235 1.95748 20.6892 1.92188 20.547C1.88631 20.4048 1.87966 20.2572 1.90234 20.1124C1.92505 19.9676 1.97632 19.8287 2.05371 19.7042L2.05469 19.7032C3.33657 17.4534 5.33811 15.6997 7.7373 14.7257L7.78809 14.7052L7.74414 14.672C6.55311 13.7787 5.67344 12.5335 5.22949 11.1124C4.78557 9.69132 4.79971 8.16646 5.27051 6.75403C5.74132 5.34158 6.64472 4.11286 7.85254 3.24231C9.06027 2.37187 10.5113 1.90349 12 1.90344ZM12.957 4.18762C12.0056 3.99845 11.0193 4.09577 10.123 4.46692C9.22655 4.83826 8.46 5.46771 7.9209 6.27454C7.38187 7.08133 7.09375 8.02983 7.09375 9.00012C7.09527 10.3008 7.61251 11.5482 8.53223 12.4679C9.45195 13.3876 10.6993 13.9048 12 13.9064C12.9703 13.9064 13.9188 13.6182 14.7256 13.0792C15.5324 12.5401 16.1619 11.7736 16.5332 10.8771C16.9043 9.98079 17.0017 8.99455 16.8125 8.04309C16.6232 7.09137 16.1559 6.21655 15.4697 5.5304C14.7836 4.84427 13.9087 4.37693 12.957 4.18762Z" fill="#fff" stroke="#000" stroke-width="0.0625"/>
</svg>
